<svg width="139" height="57" viewBox="0 0 139 57" fill="none" xmlns="http://www.w3.org/2000/svg">
<path d="M54.2295 35.7732C57.6611 35.2797 59.0036 34.2352 59.0036 31.9859C59.0036 30.7427 58.5294 29.0862 57.7989 26.8369L60.8556 25.4976L61.4291 27.5675C61.961 29.522 62.3359 29.8968 63.9732 29.8968C64.4424 29.9119 64.8869 30.1102 65.2116 30.4492C65.5362 30.7883 65.7151 31.241 65.7098 31.7104C65.7161 32.1822 65.5382 32.6379 65.214 32.9806C64.8897 33.3234 64.4446 33.5264 63.9732 33.5463C63.2589 33.5609 62.5488 33.4335 61.8841 33.1714C61.7237 34.4133 61.2249 35.5871 60.4423 36.5646C59.26 37.9648 57.3663 38.7722 54.6429 38.7722C54.3865 38.7722 54.1302 38.7722 53.8739 38.753L53.7745 35.8148C53.9315 35.7956 54.0917 35.7956 54.2295 35.7732Z" fill="#FACC15"/>
<path d="M74.6844 31.7103C74.6907 32.1822 74.5128 32.6378 74.1885 32.9806C73.8643 33.3234 73.4192 33.5263 72.9478 33.5463C70.7401 33.5463 69.2406 33.1105 68.2922 32.1653C67.042 33.0852 65.525 33.5702 63.9731 33.5463C63.5005 33.5296 63.0535 33.3276 62.7286 32.9841C62.4037 32.6406 62.2269 32.1831 62.2365 31.7103C62.227 31.2398 62.4045 30.7847 62.73 30.4447C63.0555 30.1048 63.5025 29.9077 63.9731 29.8968C65.3124 29.8968 66.3601 29.7174 67.049 29.3425C66.9844 28.8721 66.9512 28.3979 66.9497 27.9231L66.9112 25.2797L69.497 25.0234L69.7341 27.529C69.9103 29.4515 70.2051 29.8968 72.9382 29.8968C73.409 29.9094 73.856 30.1066 74.1827 30.4459C74.5094 30.7852 74.6896 31.2394 74.6844 31.7103V31.7103ZM65.1746 23.9788L63.3419 22.1429V22.0628L65.1746 20.2493H65.2547L66.3409 21.3355L67.8597 19.8359H67.9366L69.7725 21.6495V21.7296L67.9366 23.5719H67.8597L66.7735 22.4697L65.2547 23.9885L65.1746 23.9788Z" fill="#FACC15"/>
<path d="M72.9478 29.8968H74.0917C76.655 29.8968 77.8405 29.4995 77.9783 28.91C78.2346 27.8238 76.8729 26.2474 72.4736 23.8988L72.794 20.3486L81.2753 18L81.4131 21.4316L76.796 22.7132C80.6825 25.5553 81.3938 27.5194 81.1375 29.3842C80.7819 31.9282 78.0616 33.5495 73.8578 33.5495H72.951C72.4785 33.5328 72.0315 33.3309 71.7066 32.9873C71.3816 32.6438 71.2049 32.1863 71.2144 31.7136C71.2041 31.243 71.3808 30.7875 71.7057 30.447C72.0306 30.1064 72.4773 29.9086 72.9478 29.8968Z" fill="#FACC15"/>
<path d="M82.6722 31.0599C82.7127 29.9554 82.898 28.8609 83.2233 27.8046L85.5111 28.298C85.4224 28.7729 85.3699 29.2538 85.3541 29.7366C85.3541 30.3486 85.7097 30.5473 86.3153 30.5473C87.3022 30.5473 88.8209 30.3486 89.199 29.9545C89.2545 29.8947 89.2883 29.818 89.2951 29.7366C89.2951 28.6729 88.7825 27.1157 86.0622 25.0618L87.8949 22.4185C91.4194 25.2797 92.1372 27.3496 92.1372 29.6597C92.1372 32.7773 89.5931 34.1455 86.0494 34.1455C83.736 34.1455 82.6722 32.9728 82.6722 31.0599Z" fill="#FACC15"/>
<path d="M2.31336 48.0256C2.31336 48.7914 1.67254 49.1118 0.961231 49.1118C0.291573 49.1118 0 48.8138 0 48.3396C0.0256098 47.9119 0.16619 47.499 0.406918 47.1445L0.150593 47.0868L0.301186 46.337C1.31689 46.5197 2.31336 47.0003 2.31336 48.0256ZM1.61487 48.0448C1.61487 47.7981 1.44825 47.5418 0.958024 47.3303C0.795143 47.5309 0.698833 47.7773 0.682476 48.0352C0.7017 48.1954 0.785006 48.2499 1.03172 48.2499C1.37456 48.2435 1.61487 48.1474 1.61487 48.0448Z" fill="#7EA4A7"/>
<path d="M2.7427 47.6988L2.71387 45.4175L3.47324 45.3342V47.6091C3.47324 48.0129 3.53092 48.0833 3.91861 48.0833C4.03758 48.0833 4.15167 48.1306 4.2358 48.2147C4.31992 48.2989 4.36719 48.4129 4.36719 48.5319C4.36719 48.6509 4.31992 48.765 4.2358 48.8491C4.15167 48.9332 4.03758 48.9805 3.91861 48.9805C3.04069 48.9805 2.7427 48.5159 2.7427 47.6988Z" fill="#7EA4A7"/>
<path d="M3.92169 48.0833H4.20045C4.78039 48.0833 5.12965 47.9872 5.12965 47.8751C5.10328 47.7334 5.0299 47.6047 4.92137 47.5098C4.58682 47.166 4.21126 46.8647 3.80314 46.6127L3.88004 45.7411L5.96271 45.1676L5.99796 46.0071L4.82525 46.3275C5.17291 46.6194 5.49453 46.9411 5.78649 47.2887C6.35361 47.9295 6.53304 48.0897 6.85986 48.0897C6.97883 48.0897 7.09292 48.137 7.17704 48.2211C7.26117 48.3053 7.30843 48.4194 7.30843 48.5383C7.30843 48.6573 7.26117 48.7714 7.17704 48.8555C7.09292 48.9396 6.97883 48.9869 6.85986 48.9869C6.64223 48.9935 6.42589 48.9511 6.2268 48.8629C6.02772 48.7748 5.85097 48.643 5.70959 48.4774C5.42763 48.7979 4.89254 48.9869 4.1556 48.9869H3.93451C3.81836 48.9827 3.70852 48.933 3.62877 48.8484C3.54902 48.7639 3.50577 48.6513 3.50837 48.5351C3.50401 48.4206 3.54494 48.3089 3.62231 48.2244C3.69967 48.1398 3.80723 48.0892 3.92169 48.0833V48.0833ZM3.92169 44.9882L5.8826 44.4435L5.90183 44.9145L3.87684 45.4752L3.92169 44.9882Z" fill="#7EA4A7"/>
<path d="M12.1243 48.5287C12.1263 48.642 12.085 48.7519 12.0088 48.8358C11.9326 48.9198 11.8272 48.9715 11.7142 48.9804C11.38 49.0025 11.0484 48.9086 10.7754 48.7145C10.6929 48.8005 10.5932 48.868 10.4827 48.9127C10.3723 48.9575 10.2537 48.9784 10.1346 48.974C9.85159 48.9712 9.57932 48.8653 9.36882 48.6761C9.12734 48.8836 8.81529 48.9903 8.4973 48.974C8.24016 48.9688 7.98993 48.8899 7.77638 48.7466C7.50601 48.9197 7.18643 48.9996 6.86641 48.974C6.74969 48.969 6.63952 48.9187 6.55934 48.8337C6.47916 48.7488 6.43529 48.6359 6.43706 48.5191C6.43622 48.462 6.44668 48.4053 6.46784 48.3523C6.48899 48.2993 6.52043 48.251 6.56034 48.2102C6.60025 48.1694 6.64785 48.1369 6.70038 48.1146C6.75291 48.0922 6.80934 48.0805 6.86641 48.0801C7.07214 48.1032 7.27884 48.0458 7.44316 47.9199C7.53928 47.8142 7.56491 47.7757 7.61297 47.199L8.20893 47.2246C8.21481 47.5006 8.2041 47.7766 8.17689 48.0513C8.27519 48.0695 8.3749 48.0791 8.47488 48.0801C8.56019 48.0874 8.6461 48.0776 8.72755 48.0512C8.80899 48.0248 8.88432 47.9823 8.94908 47.9263C9.0452 47.8174 9.06764 47.7789 9.1157 47.2022L9.71166 47.2278C9.71166 47.5482 9.71166 47.7981 9.69243 47.9872C9.83275 48.049 9.98448 48.0806 10.1378 48.0801C10.2435 48.0801 10.2884 48.0545 10.3076 48.0224C10.3268 47.9904 10.3429 47.8911 10.3333 47.5803L10.314 47.0099L10.9549 46.8786L11.035 47.5194C11.099 47.9936 11.1727 48.0833 11.6982 48.0833C11.8132 48.0875 11.9221 48.1363 12.0017 48.2195C12.0812 48.3027 12.1253 48.4136 12.1243 48.5287ZM9.05161 46.8978L8.59983 46.4492V46.43L9.05161 45.9846H9.07084L9.34319 46.2506L9.70845 45.8917H9.72767L10.1795 46.3339V46.3531L9.72767 46.8017H9.70845L9.43931 46.5293L9.07084 46.8978H9.05161ZM9.33677 46.0327L8.92024 45.6161V45.6001L9.33677 45.1836H9.35601L9.77254 45.6001V45.6161L9.35601 46.0327H9.33677Z" fill="#7EA4A7"/>
<path d="M11.7461 48.0833C12.3325 48.0833 12.6657 47.9872 12.6657 47.7405C12.6314 47.3817 12.5561 47.028 12.4414 46.6863L13.1944 46.414C13.2959 46.8341 13.3539 47.2636 13.3674 47.6956C13.3866 48.5287 12.8195 48.9773 11.7654 48.9773H11.7365C11.6176 48.9773 11.5035 48.93 11.4193 48.8459C11.3352 48.7617 11.288 48.6477 11.288 48.5287C11.288 48.4097 11.3352 48.2956 11.4193 48.2115C11.5035 48.1274 11.6176 48.0801 11.7365 48.0801L11.7461 48.0833ZM12.1883 45.7507V45.7315L12.5824 45.2349H12.6016L13.1047 45.6226V45.6418L12.7138 46.1448H12.6753L12.1883 45.7507Z" fill="#7EA4A7"/>
<path d="M13.8353 45.4175L14.5947 45.3342V48.9709L13.8802 49.0318L13.8353 45.4175Z" fill="#7EA4A7"/>
<path d="M15.0529 48.3717C15.0636 48.1 15.1088 47.8309 15.1874 47.5706L15.7513 47.6924C15.7294 47.8087 15.7165 47.9265 15.7129 48.0449C15.7129 48.1954 15.7994 48.2435 15.9436 48.2435C16.1882 48.2582 16.4323 48.2085 16.6517 48.0993C16.6645 48.0838 16.6723 48.0649 16.6741 48.0449C16.6741 47.7853 16.5492 47.404 15.8795 46.8978L16.3313 46.257C17.1932 46.9587 17.3726 47.4681 17.3726 48.032C17.3726 48.7978 16.7318 49.1375 15.8763 49.1375C15.3156 49.131 15.0529 48.8395 15.0529 48.3717Z" fill="#7EA4A7"/>
<path d="M18.6318 49.5251C19.561 49.4867 19.9135 49.1855 19.9135 48.612C19.8754 48.1783 19.7762 47.7522 19.6187 47.3464L20.3685 47.0259C20.5266 47.5017 20.6214 47.9961 20.6504 48.4966C20.6504 49.6052 20.0577 50.3486 18.6607 50.2813L18.6318 49.5251Z" fill="#7EA4A7"/>
<path d="M21.1087 47.6988L21.0798 45.4175L21.8392 45.3342V47.6091C21.8392 48.0129 21.8969 48.0833 22.2846 48.0833C22.4035 48.0833 22.5176 48.1306 22.6018 48.2147C22.6859 48.2989 22.7332 48.4129 22.7332 48.5319C22.7332 48.6509 22.6859 48.765 22.6018 48.8491C22.5176 48.9332 22.4035 48.9805 22.2846 48.9805C21.4098 48.9805 21.1183 48.5159 21.1087 47.6988Z" fill="#7EA4A7"/>
<path d="M24.9184 48.5287C24.9202 48.6447 24.8766 48.7567 24.7971 48.8411C24.7175 48.9255 24.6081 48.9755 24.4922 48.9805C24.2891 49.0025 24.0836 48.9838 23.8877 48.9255C23.6919 48.8671 23.5096 48.7704 23.3516 48.6408C23.044 48.8678 22.6701 48.9872 22.2878 48.9805C22.1717 48.9763 22.0618 48.9265 21.9821 48.842C21.9023 48.7574 21.8591 48.6449 21.8617 48.5287C21.8604 48.4715 21.8704 48.4145 21.8911 48.3612C21.9119 48.3078 21.9429 48.2591 21.9825 48.2177C22.0221 48.1764 22.0694 48.1432 22.1218 48.1201C22.1742 48.0971 22.2306 48.0846 22.2878 48.0833C22.5459 48.0988 22.804 48.0526 23.0408 47.9487C23.0262 47.8329 23.0187 47.7163 23.0184 47.5995V46.9587L23.6592 46.8946L23.7169 47.5098C23.7585 47.984 23.8322 48.0897 24.5051 48.0897C24.6167 48.097 24.7214 48.1464 24.7981 48.2278C24.8749 48.3093 24.9178 48.4168 24.9184 48.5287V48.5287ZM23.3996 49.2752L23.8482 49.7206V49.7398L23.3996 50.1948H23.3804L23.1145 49.9225L22.7396 50.2973H22.7204L22.2878 49.8456V49.8263L22.7364 49.381H22.7556L23.0216 49.6437L23.3964 49.2752H23.3996Z" fill="#7EA4A7"/>
<path d="M29.7692 48.5287C29.7709 48.6457 29.7265 48.7587 29.6456 48.8433C29.5646 48.9278 29.4536 48.9771 29.3366 48.9804C29.0023 49.0031 28.6706 48.9091 28.3978 48.7145C28.3152 48.8003 28.2154 48.8677 28.105 48.9125C27.9946 48.9572 27.876 48.9782 27.757 48.974C27.4749 48.9713 27.2036 48.8653 26.9944 48.6761C26.7525 48.8827 26.4408 48.9893 26.1229 48.974C25.8657 48.9694 25.6153 48.8904 25.402 48.7466C25.1312 48.9188 24.812 48.9986 24.492 48.974C24.375 48.9691 24.2645 48.9188 24.1838 48.834C24.1031 48.7491 24.0585 48.6362 24.0595 48.5191C24.059 48.4618 24.0699 48.4051 24.0914 48.3521C24.1129 48.299 24.1447 48.2507 24.1848 48.21C24.225 48.1692 24.2728 48.1368 24.3255 48.1145C24.3782 48.0922 24.4348 48.0805 24.492 48.0801C24.6967 48.1027 24.9022 48.0453 25.0656 47.9199C25.1649 47.8142 25.1873 47.7757 25.2354 47.199L25.8313 47.2246C25.8379 47.5005 25.8283 47.7765 25.8025 48.0513C25.8997 48.0695 25.9984 48.0791 26.0973 48.0801C26.1826 48.0874 26.2685 48.0776 26.3499 48.0512C26.4314 48.0248 26.5067 47.9823 26.5715 47.9263C26.6676 47.8174 26.6932 47.7789 26.7413 47.2022L27.3373 47.2278C27.3373 47.5482 27.3373 47.7981 27.318 47.9872C27.4583 48.0492 27.6101 48.0809 27.7634 48.0801C27.8691 48.0801 27.914 48.0545 27.9332 48.0224C27.9524 47.9904 27.9653 47.8911 27.9557 47.5803L27.9364 47.0099L28.5772 46.8786L28.6606 47.5194C28.7214 47.9936 28.7951 48.0833 29.3238 48.0833C29.3824 48.0829 29.4405 48.0941 29.4947 48.1163C29.549 48.1386 29.5982 48.1714 29.6397 48.2128C29.6811 48.2542 29.7139 48.3035 29.7361 48.3577C29.7584 48.412 29.7696 48.4701 29.7692 48.5287V48.5287ZM26.6932 46.8978L26.2447 46.4492V46.43L26.6932 45.9846H26.7125L26.9848 46.2506L27.3533 45.8917H27.3725L27.8211 46.3339V46.3531L27.3725 46.8017H27.3533L27.0809 46.5293L26.7125 46.8978H26.6932ZM26.9816 46.0327L26.5651 45.6161V45.6001L26.9816 45.1836H27.0008L27.4142 45.6001V45.6161L27.0008 46.0327H26.9816Z" fill="#7EA4A7"/>
<path d="M29.3913 48.0833C29.9776 48.0833 30.3109 47.9872 30.3109 47.7405C30.2765 47.382 30.2023 47.0284 30.0898 46.6863L30.8395 46.414C30.9418 46.8341 31.0008 47.2635 31.0158 47.6956C31.035 48.5287 30.4679 48.9773 29.4137 48.9773H29.3849C29.2687 48.9731 29.1589 48.9233 29.0791 48.8388C28.9994 48.7542 28.9561 48.6417 28.9587 48.5255C28.9579 48.468 28.9684 48.4109 28.9897 48.3575C29.0111 48.3041 29.0427 48.2554 29.0829 48.2143C29.1231 48.1732 29.1711 48.1405 29.224 48.118C29.2769 48.0955 29.3338 48.0837 29.3913 48.0833V48.0833ZM29.8302 45.7507V45.7315L30.2211 45.2349H30.2404L30.7434 45.6226V45.6418L30.3525 46.1448H30.3333L29.8302 45.7507Z" fill="#7EA4A7"/>
<path d="M31.4772 45.4175L32.2365 45.3342V48.9709L31.5188 49.0318L31.4772 45.4175Z" fill="#7EA4A7"/>
<path d="M32.698 48.3717C32.7071 48.0999 32.7524 47.8305 32.8326 47.5706L33.3933 47.6924C33.3713 47.8087 33.3585 47.9265 33.3548 48.0449C33.3548 48.1954 33.4413 48.2435 33.5887 48.2435C33.8323 48.2583 34.0754 48.2085 34.2936 48.0993C34.3084 48.0848 34.3175 48.0655 34.3193 48.0449C34.3193 47.7853 34.1943 47.404 33.5247 46.8978L33.9764 46.257C34.8351 46.9587 35.0146 47.4681 35.0146 48.032C35.0146 48.7978 34.3737 49.1375 33.5215 49.1375C32.9575 49.131 32.698 48.8395 32.698 48.3717Z" fill="#7EA4A7"/>
<path d="M36.2737 48.4038C36.3122 47.9817 36.5077 47.5895 36.8216 47.3047L37.2766 47.6828C37.1458 47.8341 37.0554 48.0159 37.0138 48.2115C37.0138 48.3365 37.1164 48.423 37.3342 48.5095V48.5447L36.9914 49.2496H36.9626C36.771 49.2035 36.5999 49.0957 36.4754 48.9429C36.351 48.7901 36.2801 48.6007 36.2737 48.4038V48.4038Z" fill="#7EA4A7"/>
<path d="M37.7155 49.0093C37.7353 48.466 37.8604 47.9317 38.0839 47.4361L38.6927 47.6572C38.533 48.0652 38.4546 48.5006 38.462 48.9388C38.4876 49.1599 38.6831 49.3874 39.199 49.3874C39.6636 49.3874 40.3204 49.1791 40.3204 48.8747C40.2785 48.3602 40.1796 47.8519 40.0256 47.3592L40.7497 47.0388C40.9566 47.6582 41.0573 48.3082 41.0477 48.9612C40.9644 49.7206 40.2659 50.2589 39.1253 50.2589C38.1608 50.2781 37.7155 49.7462 37.7155 49.0093ZM38.7664 46.728V46.7087L39.2182 46.2634H39.2374L39.686 46.7087V46.728L39.2374 47.1797H39.2182L38.7664 46.728Z" fill="#7EA4A7"/>
<path d="M41.4355 47.6988L41.4034 45.4175L42.166 45.3342V47.6027C42.166 48.0064 42.2237 48.0769 42.6114 48.0769C42.7304 48.0769 42.8445 48.1242 42.9286 48.2083C43.0127 48.2924 43.06 48.4065 43.06 48.5255C43.06 48.6445 43.0127 48.7586 42.9286 48.8427C42.8445 48.9268 42.7304 48.9741 42.6114 48.9741C41.7335 48.9805 41.4451 48.5159 41.4355 47.6988Z" fill="#7EA4A7"/>
<path d="M42.6146 48.0833H42.8966C43.5374 48.0833 43.8162 47.9872 43.8578 47.843C43.9219 47.5771 43.5887 47.2022 42.5089 46.6127L42.5858 45.7411L44.6685 45.1676L44.7005 46.0071L43.5694 46.3275C44.5307 47.0228 44.6973 47.5034 44.6332 47.9616C44.5467 48.5864 43.877 48.9837 42.8485 48.9837H42.6242C42.5053 48.9837 42.3912 48.9364 42.307 48.8523C42.2229 48.7682 42.1757 48.6541 42.1757 48.5351C42.1757 48.4161 42.2229 48.302 42.307 48.2179C42.3912 48.1338 42.5053 48.0865 42.6242 48.0865L42.6146 48.0833ZM42.6402 44.9882L44.6012 44.4435L44.6204 44.9145L42.5954 45.4752L42.6402 44.9882Z" fill="#7EA4A7"/>
<path d="M45.0017 48.3717C45.0124 48.1001 45.0576 47.8309 45.1363 47.5707L45.697 47.6925C45.6751 47.8077 45.6622 47.9245 45.6585 48.0417C45.6585 48.1923 45.7419 48.2436 45.8924 48.2436C46.1618 48.248 46.4295 48.2001 46.6807 48.1026C46.6299 47.9907 46.5881 47.875 46.5557 47.7565L46.2545 46.6031L46.9626 46.2827L47.267 47.5162C47.3727 47.952 47.5394 48.0962 47.9078 48.0962C48.0268 48.0962 48.1409 48.1434 48.225 48.2276C48.3091 48.3117 48.3564 48.4258 48.3564 48.5448C48.3564 48.6637 48.3091 48.7778 48.225 48.8619C48.1409 48.9461 48.0268 48.9933 47.9078 48.9933C47.5989 48.9995 47.2999 48.8845 47.0748 48.6729C46.812 49.035 46.2673 49.1343 45.8412 49.1343C45.2644 49.1311 45.0017 48.8395 45.0017 48.3717Z" fill="#7EA4A7"/>
<path d="M47.8917 48.0833C48.478 48.0833 48.8112 47.9872 48.8112 47.7405C48.7769 47.382 48.7027 47.0284 48.5901 46.6863L49.3399 46.414C49.4421 46.8341 49.5012 47.2635 49.5161 47.6956C49.5354 48.5287 48.9682 48.9773 47.9141 48.9773H47.8852C47.7691 48.9731 47.6593 48.9233 47.5795 48.8388C47.4998 48.7542 47.4565 48.6417 47.4591 48.5255C47.4582 48.468 47.4688 48.4109 47.4901 48.3575C47.5114 48.3041 47.5431 48.2554 47.5833 48.2143C47.6235 48.1732 47.6715 48.1405 47.7244 48.118C47.7773 48.0955 47.8342 48.0837 47.8917 48.0833V48.0833ZM48.3306 45.7507V45.7315L48.7215 45.2349H48.7407L49.2438 45.6226V45.6418L48.8529 46.1448H48.8337L48.3306 45.7507Z" fill="#7EA4A7"/>
<path d="M49.3496 49.5251C50.1923 49.4034 50.5191 49.147 50.5191 48.5959C50.481 48.1623 50.3818 47.7362 50.2243 47.3303L50.9741 47.0099L51.115 47.5161C51.2464 47.9968 51.3393 48.0865 51.7398 48.0865C51.8588 48.0865 51.9729 48.1337 52.057 48.2179C52.1411 48.302 52.1884 48.4161 52.1884 48.535C52.1884 48.654 52.1411 48.7681 52.057 48.8522C51.9729 48.9364 51.8588 48.9836 51.7398 48.9836C51.5644 48.9874 51.3901 48.9558 51.2272 48.8907C51.1881 49.1954 51.0662 49.4835 50.8747 49.7238C50.6924 49.9145 50.4697 50.0621 50.2231 50.1558C49.9764 50.2495 49.7119 50.2869 49.4489 50.2653H49.2599L49.2374 49.5443L49.3496 49.5251Z" fill="#7EA4A7"/>
<path d="M51.7399 48.9805C51.6237 48.9764 51.5139 48.9266 51.4341 48.8421C51.3544 48.7575 51.3111 48.645 51.3137 48.5288C51.3124 48.4715 51.3224 48.4146 51.3432 48.3613C51.3639 48.3079 51.3949 48.2592 51.4345 48.2178C51.4741 48.1764 51.5214 48.1433 51.5738 48.1202C51.6262 48.0972 51.6826 48.0846 51.7399 48.0834V48.0834C52.3262 48.0834 52.6594 47.9873 52.6594 47.7406C52.6251 47.3821 52.5509 47.0285 52.4384 46.6864L53.1881 46.4141C53.2928 46.8336 53.3508 47.2634 53.3611 47.6957C53.3836 48.5288 52.8164 48.9773 51.7591 48.9773L51.7399 48.9805ZM52.8485 49.3234L53.297 49.7688V49.788L52.8485 50.2398H52.8293L52.5633 49.9738L52.1884 50.3391H52.1692L51.7206 49.8905V49.8713L52.1692 49.4259H52.1884L52.4544 49.6919L52.8293 49.3234H52.8485ZM52.5729 50.2205L52.9895 50.6339V50.6499L52.5729 51.0664H52.5537L52.1372 50.6499V50.6339L52.5537 50.2205H52.5729Z" fill="#7EA4A7"/>
<path d="M57.2828 47.2246C57.1157 47.2499 56.9654 47.3403 56.8646 47.4759C56.7638 47.6115 56.7207 47.7814 56.7445 47.9487C56.7445 48.0609 56.8695 48.0833 57.3854 48.1634C57.9012 48.2435 58.18 48.4838 58.1319 49.0413C58.0646 49.7975 57.4046 50.3678 56.2094 50.3678C55.0143 50.3678 54.649 49.8167 54.649 49.0125C54.6764 48.497 54.8014 47.9914 55.0175 47.5226L55.6295 47.7469C55.4944 48.1198 55.4156 48.5107 55.3956 48.9068C55.3956 49.2272 55.5174 49.4739 56.2287 49.4739C56.94 49.4739 57.4174 49.2848 57.4078 49.1342C57.4078 49.0541 57.2155 49.0413 56.8631 48.9933C56.344 48.9228 56.0781 48.7626 56.0524 48.157C56.0204 47.3303 56.5619 46.3339 57.2316 46.3339C57.4372 46.3426 57.6378 46.4007 57.8163 46.5033C57.9948 46.6059 58.1459 46.75 58.2569 46.9234L57.8724 47.4169C57.6984 47.2975 57.4937 47.2308 57.2828 47.2246V47.2246Z" fill="#7EA4A7"/>
<path d="M58.5999 47.6988L58.571 45.4175L59.3304 45.3342V47.6027C59.3304 48.0064 59.3881 48.0769 59.7758 48.0769C59.8948 48.0769 60.0089 48.1242 60.093 48.2083C60.1771 48.2924 60.2244 48.4065 60.2244 48.5255C60.2244 48.6445 60.1771 48.7586 60.093 48.8427C60.0089 48.9268 59.8948 48.9741 59.7758 48.9741C58.8979 48.9805 58.6095 48.5159 58.5999 47.6988Z" fill="#7EA4A7"/>
<path d="M59.7757 48.0834H60.0385C60.0795 47.6663 60.1567 47.2535 60.2692 46.8498C60.3685 46.555 60.4966 46.4781 60.9516 46.3724C61.6213 46.9427 61.9449 47.4906 61.9449 47.8238C61.944 47.9434 61.9212 48.0618 61.8776 48.1731C61.9447 48.1158 62.0298 48.0841 62.1179 48.0834H62.339C62.458 48.0834 62.5721 48.1306 62.6562 48.2148C62.7403 48.2989 62.7876 48.413 62.7876 48.5319C62.7876 48.6509 62.7403 48.765 62.6562 48.8491C62.5721 48.9333 62.458 48.9805 62.339 48.9805H62.1948C62.2149 49.0937 62.2256 49.2084 62.2269 49.3234C62.2269 49.8616 61.9481 50.1116 61.381 50.1116C61.0656 50.1137 60.7605 49.9996 60.5241 49.7909C60.2876 49.5822 60.1364 49.2937 60.0993 48.9805H59.7757C59.6568 48.9805 59.5427 48.9333 59.4585 48.8491C59.3744 48.765 59.3271 48.6509 59.3271 48.5319C59.3271 48.413 59.3744 48.2989 59.4585 48.2148C59.5427 48.1306 59.6568 48.0834 59.7757 48.0834V48.0834ZM61.24 47.8463C61.24 47.7085 61.1279 47.5259 60.8267 47.2439C60.7658 47.5643 60.7113 47.8527 60.6761 48.1635C61.0381 48.0994 61.2432 47.9744 61.2432 47.8463H61.24ZM61.4419 49.3522H61.554C61.554 49.3041 61.554 49.2593 61.554 49.2144C61.5564 49.1513 61.545 49.0885 61.5206 49.0303C61.4962 48.9721 61.4593 48.92 61.4126 48.8775C61.3659 48.8351 61.3105 48.8034 61.2502 48.7847C61.19 48.7659 61.1263 48.7606 61.0638 48.769C60.9484 48.7695 60.8335 48.7824 60.7209 48.8075C60.7652 48.9651 60.8601 49.1038 60.9909 49.2023C61.1218 49.3007 61.2813 49.3534 61.4451 49.3522H61.4419Z" fill="#7EA4A7"/>
<path d="M62.3551 48.9805H62.3391C62.2229 48.9764 62.1131 48.9266 62.0334 48.8421C61.9536 48.7575 61.9104 48.645 61.913 48.5288C61.9117 48.4715 61.9217 48.4146 61.9424 48.3613C61.9631 48.3079 61.9942 48.2592 62.0338 48.2178C62.0733 48.1764 62.1207 48.1433 62.1731 48.1202C62.2254 48.0972 62.2819 48.0846 62.3391 48.0834V48.0834C62.9799 48.0834 63.3003 47.9873 63.3003 47.7406C63.266 47.3821 63.1918 47.0285 63.0792 46.6864L63.829 46.4141C63.9312 46.8342 63.9903 47.2636 64.0052 47.6957C64.0309 48.5256 63.4637 48.9805 62.3551 48.9805ZM63.1049 49.3682L63.5566 49.8136V49.8457L63.1049 50.3006H63.0856L62.8197 50.0283L62.448 50.4H62.4288L61.977 49.9514V49.9322L62.4288 49.4868H62.448L62.714 49.7463L63.0856 49.3811L63.1049 49.3682Z" fill="#7EA4A7"/>
<path d="M63.8641 49.5251C64.7933 49.4867 65.1458 49.1855 65.1458 48.612C65.1061 48.1786 65.0069 47.7527 64.851 47.3464L65.6008 47.0259C65.7581 47.5017 65.8518 47.9963 65.8795 48.4966C65.8795 49.6052 65.29 50.3486 63.8898 50.2813L63.8641 49.5251Z" fill="#7EA4A7"/>
<path d="M66.3443 47.6988L66.3154 45.4175L67.0748 45.3342V47.6027C67.0748 48.0064 67.1325 48.0769 67.5202 48.0769C67.6391 48.0769 67.7532 48.1242 67.8374 48.2083C67.9215 48.2924 67.9687 48.4065 67.9687 48.5255C67.9687 48.6445 67.9215 48.7586 67.8374 48.8427C67.7532 48.9268 67.6391 48.9741 67.5202 48.9741C66.6423 48.9805 66.3539 48.5159 66.3443 47.6988Z" fill="#7EA4A7"/>
<path d="M67.5232 48.0833C67.8212 48.0833 67.9943 47.968 68.3083 47.4425C68.6767 46.8401 68.9811 46.5453 69.4745 46.5453C69.8911 46.5453 70.2596 46.8658 70.3941 47.5418C70.487 48.0064 70.6569 48.0737 71.0638 48.0737C71.1828 48.0737 71.2968 48.121 71.381 48.2051C71.4651 48.2892 71.5124 48.4033 71.5124 48.5223C71.5124 48.6412 71.4651 48.7553 71.381 48.8395C71.2968 48.9236 71.1828 48.9708 71.0638 48.9708C70.9164 48.979 70.7691 48.9545 70.6323 48.8991C70.4955 48.8437 70.3726 48.7588 70.2724 48.6504C70.1952 48.7942 70.08 48.9139 69.9392 48.9965C69.7985 49.079 69.6377 49.1211 69.4745 49.1182C69.2691 49.1122 69.0678 49.0591 68.8862 48.963C68.7045 48.8669 68.5474 48.7304 68.4268 48.5639C68.3204 48.7007 68.1837 48.8109 68.0274 48.886C67.8712 48.961 67.6997 48.9989 67.5265 48.9965C67.4075 48.9965 67.2934 48.9492 67.2093 48.8651C67.1251 48.781 67.0779 48.6669 67.0779 48.5479C67.0779 48.4289 67.1251 48.3148 67.2093 48.2307C67.2934 48.1466 67.4075 48.0993 67.5265 48.0993L67.5232 48.0833ZM69.4938 48.2403C69.6508 48.2403 69.7565 48.1378 69.7565 47.9199C69.7565 47.5995 69.654 47.4105 69.4521 47.4105C69.3015 47.4105 69.1125 47.4553 68.8273 47.9103C69.0075 48.0907 69.2414 48.2076 69.4938 48.2435V48.2403Z" fill="#7EA4A7"/>
<path d="M73.5533 48.5287C73.5559 48.6449 73.5127 48.7574 73.4329 48.842C73.3532 48.9265 73.2433 48.9763 73.1272 48.9805C72.7188 48.99 72.3187 48.8638 71.9897 48.6216C71.8721 48.7452 71.7288 48.8414 71.5699 48.9034C71.411 48.9655 71.2404 48.9918 71.0702 48.9805C70.9512 48.9805 70.8371 48.9332 70.753 48.8491C70.6688 48.765 70.6216 48.6509 70.6216 48.5319C70.6216 48.4129 70.6688 48.2988 70.753 48.2147C70.8371 48.1306 70.9512 48.0833 71.0702 48.0833C71.4386 48.0833 71.5636 47.9872 71.7334 47.5194L71.884 47.1061L72.4671 47.3143L72.371 47.7885C72.3612 47.8426 72.3484 47.8961 72.3326 47.9488C72.5865 48.0437 72.8562 48.0894 73.1272 48.0833C73.2425 48.0867 73.3518 48.1353 73.4316 48.2186C73.5113 48.302 73.5551 48.4134 73.5533 48.5287V48.5287ZM72.1403 49.3521L72.5889 49.7975V49.8167L72.1403 50.2717H72.1211L71.852 50.0026L71.4803 50.3743H71.4611L71.0125 49.9225V49.9033L71.4611 49.4579H71.4803L71.7462 49.7206L72.1211 49.3521H72.1403Z" fill="#7EA4A7"/>
<path d="M73.1209 48.0834C73.7073 48.0834 74.0405 47.9873 74.0405 47.7406C74.0061 47.3821 73.932 47.0285 73.8194 46.6864L74.5692 46.4141C74.6722 46.8339 74.7302 47.2636 74.7422 47.6957C74.7614 48.5288 74.1975 48.9773 73.1402 48.9773H73.1113C72.9952 48.9732 72.8853 48.9234 72.8056 48.8389C72.7258 48.7543 72.6826 48.6418 72.6852 48.5256C72.6843 48.4678 72.695 48.4104 72.7165 48.3568C72.738 48.3032 72.77 48.2544 72.8105 48.2133C72.8511 48.1721 72.8994 48.1395 72.9527 48.1172C73.006 48.0949 73.0632 48.0834 73.1209 48.0834V48.0834ZM73.2363 49.8713V49.8457L73.688 49.4003H73.7073L74.1559 49.8457V49.8649L73.7073 50.3135H73.688L73.2363 49.8713Z" fill="#7EA4A7"/>
<path d="M83.1657 48.5287C83.1674 48.6447 83.1239 48.7568 83.0443 48.8411C82.9648 48.9255 82.8554 48.9755 82.7395 48.9805C82.4534 48.9868 82.1753 48.885 81.9609 48.6953C81.4994 48.8957 80.9997 48.993 80.4966 48.9805C80.1397 48.9871 79.7849 48.924 79.4521 48.7946C79.4521 48.8844 79.4521 48.9324 79.4521 48.9805C79.372 49.7334 78.6703 50.2782 77.5296 50.2782C76.5684 50.2782 76.1102 49.7463 76.1102 48.9965C76.1301 48.4532 76.2552 47.9189 76.4787 47.4233L77.0875 47.6444C76.9278 48.0525 76.8494 48.4879 76.8568 48.926C76.8824 49.1471 77.0779 49.3746 77.5937 49.3746C78.0583 49.3746 78.7152 49.1663 78.7152 48.8619C78.6641 48.3482 78.5633 47.8406 78.414 47.3464L79.1413 47.026L79.2727 47.5771C79.2886 47.668 79.3317 47.7519 79.3964 47.8177C79.461 47.8835 79.5442 47.9281 79.6347 47.9456C79.9359 46.885 80.4005 46.4012 81.1599 46.4012C81.9769 46.4012 82.5088 47.042 82.4672 48.0577H82.7427C82.8017 48.0601 82.8595 48.0743 82.9129 48.0995C82.9663 48.1246 83.014 48.1602 83.0535 48.2041C83.0929 48.248 83.1231 48.2993 83.1424 48.3551C83.1616 48.4108 83.1696 48.4699 83.1657 48.5287ZM80.5031 48.0833C81.1919 48.0833 81.6982 47.984 81.7623 47.8558C81.7643 47.842 81.7643 47.828 81.7623 47.8142C81.7599 47.7113 81.7335 47.6104 81.6854 47.5194C81.6279 47.437 81.5486 47.3724 81.4563 47.3327C81.364 47.2931 81.2624 47.2801 81.1631 47.2951C80.8139 47.2951 80.4518 47.4649 80.2724 48.0737L80.5031 48.0833Z" fill="#7EA4A7"/>
<path d="M87.8437 48.5287C87.8455 48.6447 87.8019 48.7568 87.7224 48.8412C87.6428 48.9255 87.5334 48.9755 87.4175 48.9805C87.1229 48.9966 86.8335 48.8978 86.6101 48.705C86.1579 48.8981 85.6695 48.9921 85.1779 48.9805C84.6875 48.9935 84.2017 48.8833 83.7649 48.6601C83.6249 48.7797 83.4622 48.8697 83.2866 48.9248C83.1109 48.9798 82.9259 48.9988 82.7428 48.9805C82.6238 48.9805 82.5097 48.9333 82.4256 48.8491C82.3414 48.765 82.2942 48.6509 82.2942 48.5319C82.2942 48.413 82.3414 48.2989 82.4256 48.2148C82.5097 48.1306 82.6238 48.0834 82.7428 48.0834C82.9498 48.1044 83.1571 48.046 83.3227 47.92C83.3932 47.8431 83.4156 47.8046 83.4541 47.5707C83.4701 47.481 83.4797 47.3592 83.4925 47.199L84.0885 47.2247C84.0885 47.4073 84.0885 47.5675 84.0885 47.6989C84.0885 47.7694 84.0885 47.8334 84.0885 47.8943C84.1654 47.9252 84.2447 47.9498 84.3256 47.968C84.646 46.9075 85.133 46.4236 85.8475 46.4236C86.6678 46.4236 87.2029 47.0645 87.1612 48.0513V48.0802H87.4304C87.5437 48.0876 87.6498 48.1383 87.7268 48.2218C87.8037 48.3053 87.8456 48.4152 87.8437 48.5287V48.5287ZM85.1811 48.0834C85.87 48.0834 86.3794 47.984 86.4403 47.8559C86.4441 47.8423 86.4441 47.8278 86.4403 47.8142C86.4379 47.7113 86.4115 47.6104 86.3634 47.5194C86.3049 47.4373 86.2249 47.373 86.1322 47.3334C86.0395 47.2938 85.9377 47.2806 85.8379 47.2952C85.6233 47.3063 85.4187 47.3891 85.2566 47.5302C85.0946 47.6714 84.9845 47.8627 84.944 48.0738L85.1811 48.0834Z" fill="#7EA4A7"/>
<path d="M87.0105 48.5287C87.0087 48.4139 87.052 48.303 87.1311 48.2197C87.2102 48.1365 87.3187 48.0875 87.4334 48.0833H87.5904C88.1119 48.0989 88.6294 47.989 89.0996 47.7629C89.2438 47.6956 89.42 47.6027 89.6186 47.497C89.3751 47.3784 89.2405 47.3208 89.1348 47.2791C88.9767 47.196 88.8034 47.1459 88.6253 47.1317C88.4555 47.1317 88.3049 47.2631 88.0935 47.5739L87.6 47.2535C87.9397 46.4236 88.3402 46.2922 88.6029 46.2922C88.8974 46.3112 89.1856 46.3862 89.452 46.5133C89.6186 46.5838 89.8013 46.6639 90.0191 46.7665C90.4709 46.9747 90.66 47.0484 90.8554 47.1189L90.708 47.9391C90.5959 47.9391 90.5094 47.9231 90.3876 47.9231C90.3238 47.9211 90.2606 47.9366 90.205 47.968C90.4191 48.0743 90.6597 48.1155 90.8971 48.0865C91.016 48.0865 91.1301 48.1338 91.2142 48.2179C91.2984 48.302 91.3456 48.4161 91.3456 48.5351C91.3456 48.6541 91.2984 48.7682 91.2142 48.8523C91.1301 48.9364 91.016 48.9837 90.8971 48.9837C90.2082 48.9837 89.7692 48.7978 89.5513 48.3589C89.533 48.3737 89.5124 48.3856 89.4905 48.3941C88.8943 48.773 88.2039 48.9772 87.4975 48.9837H87.4398C87.3228 48.9795 87.2122 48.9294 87.1318 48.8443C87.0515 48.7591 87.0079 48.6458 87.0105 48.5287V48.5287ZM88.1159 45.645V45.6258L88.5677 45.1804H88.5869L89.0355 45.6258V45.645L88.5869 46.0968H88.5677L88.1159 45.645Z" fill="#7EA4A7"/>
<path d="M93.5086 48.5287C93.5105 48.6421 93.4692 48.7519 93.393 48.8359C93.3168 48.9198 93.2114 48.9715 93.0984 48.9805C92.8948 49.0022 92.6888 48.9834 92.4925 48.9251C92.2962 48.8668 92.1134 48.7702 91.9546 48.6409C91.649 48.8672 91.2774 48.9865 90.8972 48.9805C90.7811 48.9763 90.6712 48.9266 90.5915 48.842C90.5117 48.7575 90.4685 48.6449 90.4711 48.5287C90.4698 48.4715 90.4798 48.4146 90.5005 48.3612C90.5213 48.3079 90.5523 48.2591 90.5919 48.2177C90.6314 48.1764 90.6788 48.1432 90.7312 48.1202C90.7835 48.0971 90.84 48.0846 90.8972 48.0833C91.1553 48.0988 91.4134 48.0527 91.6502 47.9488C91.6356 47.8329 91.6281 47.7163 91.6277 47.5995V46.9587L92.2686 46.8946L92.3262 47.5098C92.3679 47.984 92.4416 48.0897 93.1144 48.0897C93.2226 48.1016 93.3227 48.1529 93.3954 48.2339C93.4681 48.3149 93.5084 48.4199 93.5086 48.5287V48.5287ZM91.176 46.6415L90.7242 46.1929V46.1737L91.176 45.7283H91.1952L91.4611 45.9943L91.8328 45.6258H91.852L92.3038 46.0712V46.0904L91.852 46.539H91.8328L91.5669 46.2698L91.1952 46.6415H91.176Z" fill="#7EA4A7"/>
<path d="M93.0984 48.0833C93.3932 48.0833 93.5662 47.968 93.8834 47.4425C94.2519 46.8401 94.5563 46.5453 95.0497 46.5453C95.5431 46.5453 95.9725 46.9523 96.0109 47.9007C96.0366 48.7241 95.5816 49.1246 95.0497 49.1246C94.8409 49.1157 94.6371 49.058 94.4546 48.9562C94.2722 48.8543 94.116 48.7112 93.9987 48.5383C93.8929 48.6765 93.7566 48.7883 93.6004 48.865C93.4442 48.9417 93.2724 48.9812 93.0984 48.9805C92.9822 48.9763 92.8724 48.9265 92.7926 48.842C92.7129 48.7574 92.6696 48.6449 92.6722 48.5287C92.671 48.4715 92.681 48.4145 92.7017 48.3612C92.7224 48.3078 92.7535 48.2591 92.793 48.2177C92.8326 48.1764 92.8799 48.1432 92.9323 48.1201C92.9847 48.0971 93.0412 48.0846 93.0984 48.0833V48.0833ZM95.0689 48.2403C95.2227 48.2403 95.3284 48.1378 95.3284 47.9199C95.3284 47.5995 95.2291 47.4105 95.0241 47.4105C94.8735 47.4105 94.6844 47.4553 94.3832 47.9103C94.5645 48.0909 94.7995 48.2078 95.0529 48.2435L95.0689 48.2403Z" fill="#7EA4A7"/>
<path d="M17.3213 27.026C15.9788 27.026 15.0144 28.5639 15.1329 29.9834C15.1714 30.4383 15.6456 30.5377 17.7763 30.8517C20.0448 31.1721 21.0092 32.175 20.8138 34.4435C20.5382 37.5194 17.8532 39.8488 12.9798 39.8488C8.24731 39.8488 6.52991 37.6059 6.52991 34.3249C6.52991 32.7229 6.94323 31.0087 8.02942 28.2371L10.5158 29.1471C9.70517 31.6911 9.55458 33.1522 9.55458 33.8795C9.55458 35.2413 10.048 36.1897 12.9477 36.1897C15.6904 36.1897 17.8019 35.4207 17.7539 34.8087C17.7315 34.4723 16.9625 34.4339 15.511 34.2352C13.3995 33.9404 12.3069 33.29 12.2172 30.8228C12.0794 27.4489 14.287 23.3861 17.0233 23.3861C19.231 23.3861 20.4934 24.8664 21.2047 25.7924L19.6475 27.8046C18.9595 27.3339 18.154 27.0643 17.3213 27.026V27.026Z" fill="#FACC15"/>
<path d="M22.0345 31.7008C22.0751 30.5962 22.2603 29.5018 22.5857 28.4454L24.8766 28.9389C24.7856 29.4135 24.7321 29.8945 24.7164 30.3775C24.7164 30.9895 25.072 31.1881 25.6776 31.1881C26.6645 31.1881 28.1832 30.9895 28.5613 30.5954C28.6175 30.5357 28.6525 30.4591 28.6606 30.3775C28.6606 29.3137 28.148 27.7565 25.4245 25.7027L27.2572 23.0593C30.7818 25.9206 31.4995 27.9904 31.4995 30.3006C31.4995 33.4182 28.9554 34.7863 25.4117 34.7863C23.1015 34.7863 22.0345 33.6136 22.0345 31.7008Z" fill="#FACC15"/>
<path d="M32.7653 31.7008C32.8058 30.5962 32.9911 29.5017 33.3164 28.4454L35.6073 28.9388C35.5166 29.407 35.4631 29.8816 35.4471 30.3582C35.4471 30.9702 35.7835 31.1881 36.4083 31.1881C37.5033 31.205 38.5913 31.0102 39.6124 30.6146C39.3981 30.1583 39.2265 29.6831 39.0998 29.1952L37.879 24.5011L40.7627 23.1394L42.0059 28.1699C42.4416 29.9449 43.1113 30.5377 44.5531 30.5377C45.0237 30.5486 45.4707 30.7456 45.7962 31.0856C46.1217 31.4255 46.2992 31.8806 46.2898 32.3512C46.2993 32.8239 46.1225 33.2815 45.7976 33.625C45.4727 33.9685 45.0257 34.1704 44.5531 34.1872C43.3013 34.2213 42.0851 33.7688 41.16 32.9247C40.093 34.4018 37.863 34.7959 36.1296 34.7959C33.8226 34.7863 32.7653 33.6136 32.7653 31.7008Z" fill="#FACC15"/>
<path d="M44.5403 30.5377C45.745 30.5377 46.4628 30.0635 47.7444 27.952C49.2439 25.5072 50.4839 24.3025 52.4993 24.3025C54.5147 24.3025 56.2641 25.959 56.3827 29.8264C56.482 33.1811 54.6268 34.8184 52.4993 34.8184C51.0382 34.8184 49.4201 34.0494 48.2154 32.4313C47.7807 32.987 47.2233 33.4347 46.5869 33.7393C45.9504 34.0439 45.2522 34.1972 44.5467 34.1871C44.0713 34.1746 43.6203 33.9744 43.2919 33.6305C42.9636 33.2865 42.7846 32.8266 42.7941 32.3512C42.7894 32.1174 42.8309 31.885 42.9161 31.6672C43.0014 31.4495 43.1288 31.2507 43.291 31.0822C43.4532 30.9138 43.6471 30.779 43.8614 30.6855C44.0758 30.5921 44.3065 30.5418 44.5403 30.5377V30.5377ZM52.5698 31.1785C53.2106 31.1785 53.6367 30.762 53.6367 29.836C53.6367 28.5543 53.2202 27.7661 52.3935 27.7661C51.7816 27.7661 51.0126 27.9423 49.8495 29.7975C50.8043 30.621 51.8392 31.1689 52.5698 31.1689V31.1785Z" fill="#FACC15"/>
<path d="M129.527 34.7324C129.527 34.7324 130.136 38.3432 133.067 38.0838C133.067 38.0838 131.145 40.6884 125.916 39.7974C125.918 39.7974 126.589 35.8805 129.527 34.7324Z" fill="#FACC15"/>
<path d="M114.956 28.184C109.306 36.4681 111.617 48.5368 111.617 48.5368L108.924 43.6579L107.385 49.565C104.939 34.6688 114.956 28.184 114.956 28.184Z" fill="#FACC15"/>
<path d="M133.103 44.6861C137.042 46.3997 137.299 49.565 137.299 49.565C136.185 48.5368 134.046 48.0227 134.046 48.0227C138.925 51.7902 138.325 56.3288 138.325 56.3288C138.325 56.3288 137.899 52.7327 129.512 47.254C121.125 41.7754 124.631 37.6652 124.631 37.6652C126.256 42.4486 129.167 42.9725 133.103 44.6861Z" fill="#FACC15"/>
<path d="M134.736 29.8291C136.778 24.5218 132.741 18.8717 130.107 17.7187C127.028 16.3699 123.742 13.2242 123.742 13.2242L124.908 16.4996C113.801 9.18006 120.477 1.47615 120.477 1.47615C114.058 5.84096 117.267 13.5449 117.267 13.5449C113.544 8.47503 115.277 0 115.277 0C112.452 6.73939 114.763 13.2193 114.763 13.2193C112.773 10.5265 112.452 5.25834 112.452 5.25834C110.144 18.0786 121.116 23.7115 122.298 24.2794C114.22 20.5315 109.813 12.3845 109.813 12.3845C111.867 21.0529 119.378 24.5193 119.378 24.5193C112.638 21.8877 109.813 16.4409 109.813 16.4409C111.226 23.8877 117.133 25.0432 117.133 25.0432C113.794 25.1068 111.747 23.6307 111.747 23.6307C114.765 28.5757 113.994 25.0995 122.726 26.6491C131.458 28.1987 125.938 35.4448 125.938 35.4448C128.864 31.7728 130.834 31.3811 131.951 31.692C131.185 32.5004 130.314 33.2012 129.361 33.7753C129.361 33.7753 135.52 34.9307 132.673 41.2172C132.67 41.2246 139.593 37.0434 134.736 29.8291ZM134.538 31.0531C134.539 31.1361 134.514 31.2173 134.469 31.2866C134.423 31.3558 134.357 31.4098 134.281 31.4418C134.204 31.4738 134.12 31.4823 134.038 31.4662C133.957 31.4501 133.882 31.4102 133.823 31.3515C133.765 31.2928 133.725 31.218 133.709 31.1366C133.693 31.0552 133.701 30.9708 133.733 30.8942C133.765 30.8176 133.819 30.7522 133.888 30.7064C133.958 30.6606 134.039 30.6364 134.122 30.6369C134.23 30.6369 134.334 30.679 134.412 30.7544C134.49 30.8299 134.535 30.9326 134.538 31.0408V31.0531Z" fill="#FACC15"/>
<path d="M125.515 28.4949C125.434 28.4818 125.352 28.4744 125.27 28.4729C125.036 28.4729 124.806 28.5234 124.594 28.6209C124.382 28.7185 124.193 28.8608 124.041 29.038C123.889 29.2153 123.777 29.4233 123.713 29.6478C123.65 29.8724 123.635 30.1081 123.671 30.3388C123.706 30.5695 123.792 30.7897 123.921 30.9844C124.049 31.179 124.219 31.3435 124.417 31.4665C124.616 31.5894 124.838 31.668 125.07 31.6968C125.302 31.7256 125.537 31.704 125.759 31.6333C125.726 31.7313 125.663 31.8164 125.579 31.8762C125.494 31.936 125.393 31.9675 125.289 31.9662C124.837 31.9515 123.999 31.7998 122.93 31.0433C121.292 29.8879 119.784 29.2979 118.114 30.0911C118.102 30.0886 120.582 26.8695 125.515 28.4949Z" fill="#FACC15"/>
<path d="M126.621 30.0885C126.621 29.8193 126.541 29.5562 126.392 29.3323C126.242 29.1085 126.03 28.934 125.781 28.831C125.532 28.728 125.259 28.7011 124.994 28.7536C124.73 28.8061 124.488 28.9357 124.298 29.1261C124.107 29.3164 123.978 29.5589 123.925 29.823C123.873 30.087 123.9 30.3607 124.003 30.6094C124.106 30.8581 124.28 31.0707 124.504 31.2202C124.728 31.3698 124.991 31.4496 125.26 31.4496C125.621 31.4496 125.967 31.3062 126.222 31.051C126.478 30.7957 126.621 30.4495 126.621 30.0885ZM126.107 29.4912C126.107 29.5508 126.089 29.609 126.056 29.6585C126.023 29.708 125.976 29.7466 125.921 29.7694C125.866 29.7922 125.806 29.7981 125.747 29.7865C125.689 29.7749 125.635 29.7462 125.593 29.7041C125.551 29.662 125.522 29.6084 125.511 29.5499C125.499 29.4915 125.505 29.431 125.528 29.376C125.551 29.321 125.589 29.2739 125.639 29.2408C125.688 29.2077 125.746 29.1901 125.806 29.1901C125.885 29.192 125.959 29.2246 126.014 29.2808C126.069 29.3371 126.1 29.4126 126.1 29.4912H126.107Z" fill="#FACC15"/>
</svg>
